<svg id="Icons" height="512" viewBox="0 0 60 60" width="512" xmlns="http://www.w3.org/2000/svg"><path d="m52.693 46.425a.5.5 0 0 1 -.324-.881l2.021-1.721-4.026 2.323a.5.5 0 0 1 -.641-.744l1.458-1.832-1.134.655a.5.5 0 0 1 -.726-.588l.151-.46a.5.5 0 0 1 -.107-.911l.663-.383a.5.5 0 0 1 .726.588l-.077.236 2.285-1.319a.5.5 0 0 1 .629.106.5.5 0 0 1 .013.638l-1.458 1.832 6.489-3.746a.5.5 0 0 1 .574.813l-2.022 1.722 1.434-.827a.5.5 0 0 1 .595.795l-.924.88a.475.475 0 0 1 .187.185.5.5 0 0 1 -.182.683l-2.381 1.375a.5.5 0 0 1 -.595-.8l.17-.162-2.548 1.47a.493.493 0 0 1 -.25.073z" fill="#bc8017"/><path d="m54.871 41a.5.5 0 0 1 -.388-.815l1.622-1.991-1.3.749a.5.5 0 0 1 -.6-.791l.561-.545-.16.092a.5.5 0 0 1 -.62-.769l1.236-1.356-.873.5a.5.5 0 0 1 -.633-.753l1.549-1.853-1.216.7a.5.5 0 0 1 -.643-.742l1.694-2.146-1.378.8a.5.5 0 0 1 -.629-.759l1.029-1.2-1.976 1.141a.5.5 0 0 1 -.6-.787l.812-.807-3.876 2.237a.5.5 0 0 1 -.6-.786l2.11-2.107-2.131 1.229a.5.5 0 0 1 -.744-.509l.209-1.355a.491.491 0 0 1 -.452-.25.5.5 0 0 1 .183-.683l.661-.381a.5.5 0 0 1 .744.508l-.2 1.283 4.525-2.612a.5.5 0 0 1 .6.786l-2.11 2.107 3.913-2.259a.5.5 0 0 1 .6.787l-.813.807 1.192-.688a.5.5 0 0 1 .629.759l-1.031 1.2 1.079-.622a.5.5 0 0 1 .642.742l-1.683 2.139 1.405-.811a.5.5 0 0 1 .634.753l-1.544 1.858 1.216-.7a.494.494 0 0 1 .639.119.5.5 0 0 1 -.019.65l-1.236 1.352.869-.5a.5.5 0 0 1 .6.791l-.56.545.159-.092a.5.5 0 0 1 .638.748l-1.628 1.987 1.3-.75a.5.5 0 1 1 .5.865l-3.657 2.115a.489.489 0 0 1 -.25.07z" fill="#bc8017"/><path d="m35.46 55.177a.5.5 0 0 1 -.289-.907l7.09-5.036-10.061 5.809a.5.5 0 0 1 -.526-.85l5.394-3.57-5.936 3.427a.5.5 0 0 1 -.534-.844l9.714-6.721-9.747 5.627a.5.5 0 0 1 -.523-.851l4.679-3.051-4.372 2.524a.5.5 0 0 1 -.529-.847l7.86-5.28-7.605 4.393a.5.5 0 0 1 -.525-.85l6.4-4.236-6.122 3.534a.5.5 0 0 1 -.528-.848l8.928-6.08-8.283 4.78a.5.5 0 0 1 -.519-.854l1.442-.924-.826.478a.5.5 0 0 1 -.674-.167.5.5 0 0 1 .144-.68l7.873-5.334-7.191 4.151a.5.5 0 0 1 -.53-.847l7.218-4.876-6.542 3.776a.5.5 0 0 1 -.532-.844l7.839-5.373-7.147 4.129a.5.5 0 0 1 -.523-.851l2.923-1.918-2.3 1.327a.5.5 0 0 1 -.531-.847l3.683-2.5-3.029 1.754a.5.5 0 0 1 -.531-.846l.709-.479-.084.048a.5.5 0 0 1 -.554-.829l2.895-2.222-2.208 1.273a.5.5 0 0 1 -.582-.807l1.732-1.538-1.022.59a.5.5 0 0 1 -.559-.039.5.5 0 0 1 -.17-.533l.5-1.709a.5.5 0 0 1 -.095-.909l.606-.35a.506.506 0 0 1 .559.04.5.5 0 0 1 .171.533l-.429 1.477 4.2-2.425a.5.5 0 0 1 .582.806l-1.735 1.542 4.558-2.631a.5.5 0 0 1 .554.829l-2.9 2.222 5.786-3.343a.5.5 0 0 1 .53.846l-.712.481 2.656-1.527a.5.5 0 0 1 .53.847l-3.677 2.494 5.927-3.421a.5.5 0 0 1 .523.851l-2.935 1.919 2.813-1.624a.5.5 0 0 1 .533.845l-7.838 5.372 7.594-4.383a.5.5 0 0 1 .531.847l-7.22 4.877 6.959-4.017a.5.5 0 0 1 .53.847l-7.875 5.336 7.626-4.4a.5.5 0 0 1 .52.854l-1.442.923 1.1-.636a.5.5 0 0 1 .531.845l-8.924 6.078 8.694-5.019a.5.5 0 0 1 .525.85l-6.405 4.234 6.128-3.537a.5.5 0 0 1 .528.847l-7.856 5.278 7.6-4.389a.5.5 0 0 1 .524.852l-4.675 3.048 4.369-2.523a.5.5 0 0 1 .534.844l-9.712 6.72 9.505-5.489a.5.5 0 0 1 .526.85l-5.4 3.58 5.109-2.949a.5.5 0 0 1 .54.84l-7.09 5.035 6.854-3.957a.5.5 0 0 1 .53.847l-1.525 1.034 1.184-.683a.5.5 0 0 1 .54.84l-1.35.959 1-.578a.5.5 0 0 1 .571.816l-1.868 1.564 1.516-.875a.5.5 0 0 1 .616.772l-.826.892a.5.5 0 0 1 .285.931l-2.538 1.465a.5.5 0 0 1 -.616-.772l.709-.766-3.628 2.1a.5.5 0 0 1 -.572-.817l1.87-1.564-5.182 2.984a.5.5 0 0 1 -.54-.84l1.35-.959-3.984 2.3a.5.5 0 0 1 -.53-.847l1.522-1.032-4.106 2.37a.493.493 0 0 1 -.252.067z" fill="#d39518"/><path d="m42.657 35.426a.5.5 0 0 1 -.376-.829l.7-.8-.981.566a.5.5 0 0 1 -.646-.128.5.5 0 0 1 .042-.658l.724-.725-.382.219a.5.5 0 0 1 -.64-.745l1.673-2.094-1.356.783a.5.5 0 0 1 -.617-.773l1.167-1.262-.8.46a.5.5 0 0 1 -.571-.815l2.626-2.2-2.652 1.53a.5.5 0 0 1 -.559-.825l1.976-1.561-2.971 1.711a.5.5 0 1 1 -.5-.865l8.939-5.161a.5.5 0 0 1 .56.825l-1.977 1.562 1.629-.941a.5.5 0 0 1 .571.816l-3.478 2.92a.5.5 0 0 1 .178.8l-1.167 1.264.793-.458a.5.5 0 0 1 .641.745l-1.674 2.1 1.36-.784a.5.5 0 0 1 .6.786l-.725.726.331-.19a.5.5 0 0 1 .626.762l-.7.8.253-.145a.5.5 0 1 1 .5.865l-2.87 1.657a.49.49 0 0 1 -.247.062z" fill="#d4e6e7"/><path d="m33.842 32.529a.5.5 0 0 1 -.393-.809l1.551-1.968-1.731 1a.5.5 0 0 1 -.547-.835l6.354-4.686-6.611 3.817a.5.5 0 0 1 -.531-.846l1.766-1.202-1.9 1.1a.5.5 0 0 1 -.556-.828l4.41-3.4-4.846 2.8a.5.5 0 0 1 -.547-.835l1.823-1.346-1.991 1.15a.5.5 0 0 1 -.553-.831l1.86-1.424-2.043 1.179a.5.5 0 0 1 -.584-.8l2.07-1.854a.511.511 0 0 1 -.443-.178.5.5 0 0 1 .008-.646l1.392-1.618a.5.5 0 0 1 .2-.658l.819-.474a.5.5 0 0 1 .628.76l-.345.4 1.262-.728a.5.5 0 0 1 .584.8l-1.918 1.718 4.729-2.729a.5.5 0 0 1 .553.831l-1.86 1.412 2.848-1.64a.5.5 0 0 1 .547.835l-1.823 1.345 3.618-2.088a.5.5 0 0 1 .555.828l-4.41 3.4 7.013-4.048a.5.5 0 0 1 .531.845l-1.763 1.2 2.744-1.578a.5.5 0 0 1 .546.835l-9.468 6.979a.5.5 0 0 1 0 .617l-1.55 1.969.894-.516a.5.5 0 1 1 .5.865l-3.142 1.815a.489.489 0 0 1 -.25.065z" fill="#d4e6e7"/><path d="m13.608 27.661a.484.484 0 0 1 -.213-.048.5.5 0 0 1 -.28-.37l-.184-1.114-1.661.958a.5.5 0 0 1 -.7-.652l.821-1.676-3.044 1.757a.5.5 0 1 1 -.5-.866l4.463-2.576a.5.5 0 0 1 .7.653l-.822 1.673.868-.5a.492.492 0 0 1 .464-.019.5.5 0 0 1 .279.37l.2 1.2a.5.5 0 0 1 .219.932l-.359.207a.493.493 0 0 1 -.251.071z" fill="#d39518"/><path d="m8.115 41.87a.5.5 0 0 1 -.375-.83l.379-.431-1.484.857a.5.5 0 0 1 -.61-.78l.812-.841-2.149 1.24a.5.5 0 0 1 -.664-.712l1.185-1.757-2.6 1.5a.5.5 0 0 1 -.641-.743l1.184-1.5-1.526.881a.5.5 0 0 1 -.609-.78l1.613-1.664-1.344.775a.5.5 0 0 1 -.6-.789l2.08-2.043-1.121.647a.5.5 0 0 1 -.585-.8l1.353-1.221-.42.242a.5.5 0 0 1 -.6-.792l2.058-2-1.032.6a.5.5 0 0 1 -.561-.825l4.342-3.436-3.32 1.918a.5.5 0 0 1 -.576-.812l2.734-2.354-1.735 1a.5.5 0 0 1 -.63-.758l1.527-1.786a.5.5 0 0 1 -.4-.909l2.4-1.388a.5.5 0 0 1 .63.758l-1.501 1.763 3.823-2.207a.5.5 0 0 1 .577.811l-2.737 2.354 4.645-2.681a.5.5 0 0 1 .56.825l-5.325 4.211a.5.5 0 0 1 .173.828l-2.059 2 1.033-.595a.5.5 0 0 1 .585.8l-1.356 1.222.423-.243a.5.5 0 0 1 .6.789l-2.077 2.04 1.04-.6a.5.5 0 0 1 .61.781l-1.613 1.665.69-.4a.5.5 0 0 1 .641.743l-1.185 1.5 2.207-1.273a.5.5 0 0 1 .664.712l-1.185 1.755 3.352-1.937a.5.5 0 0 1 .609.78l-.811.84 1.049-.6a.5.5 0 0 1 .625.762l-.593.673a.5.5 0 0 1 .186.929l-2.115 1.216a.489.489 0 0 1 -.25.07z" fill="#d39518"/><path d="m15.72 20.977a.5.5 0 0 1 -.25-.933l.646-.373a.5.5 0 1 1 .5.865l-.646.373a.5.5 0 0 1 -.25.068z" fill="#edb311"/><path d="m24.894 51.266a.5.5 0 0 1 -.325-.881l.435-.37-1.5.864a.5.5 0 0 1 -.587-.8l3.323-3.035-5.656 3.266a.5.5 0 0 1 -.556-.829l4.189-3.236-6.176 3.565a.5.5 0 0 1 -.532-.845l2.176-1.49-3.438 1.984a.5.5 0 0 1 -.531-.846l3.921-2.669-5.407 3.12a.5.5 0 0 1 -.528-.847l4.923-3.3-6.475 3.741a.5.5 0 0 1 -.526-.849l6.221-4.118-7.845 4.532a.5.5 0 0 1 -.522-.853l6.23-4.041-7.076 4.083a.5.5 0 0 1 -.524-.851l8.629-5.623-8.848 5.108a.5.5 0 0 1 -.527-.85l11.717-7.755-11.023 6.365a.5.5 0 0 1 -.528-.849l12.822-8.55-11.788 6.805a.5.5 0 0 1 -.523-.852l9.16-5.982-8.228 4.751a.5.5 0 0 1 -.526-.85l8.26-5.455-7.33 4.232a.5.5 0 0 1 -.526-.85l7.248-4.8-6.332 3.657a.5.5 0 0 1 -.523-.851l2.938-1.912-2.114 1.22a.5.5 0 0 1 -.523-.851l1.857-1.215-1.046.6a.5.5 0 0 1 -.542-.839l5.824-4.193-4.846 2.8a.5.5 0 0 1 -.544-.837l3.632-2.643-2.713 1.565a.5.5 0 0 1 -.555-.829l2.749-2.114-1.825 1.053a.5.5 0 0 1 -.581-.808l2.268-2-1.282.739a.5.5 0 0 1 -.678-.69l.663-1.1a.5.5 0 0 1 -.111-.913l1.123-.647a.5.5 0 0 1 .678.69l-.5.829 3.916-2.26a.5.5 0 0 1 .581.807l-2.267 2 4.056-2.343a.5.5 0 0 1 .555.829l-2.755 2.117 4.36-2.517a.5.5 0 0 1 .544.837l-3.624 2.641 5.274-3.044a.5.5 0 0 1 .542.838l-5.826 4.2 7.841-4.527a.5.5 0 0 1 .523.851l-1.848 1.21 3-1.73a.5.5 0 0 1 .523.852l-2.942 1.914 4.185-2.416a.5.5 0 0 1 .675.17.5.5 0 0 1 -.149.68l-7.256 4.8 7.6-4.386a.5.5 0 0 1 .526.849l-8.258 5.449 9.574-5.527a.5.5 0 0 1 .523.852l-9.165 5.985 9.441-5.45a.5.5 0 0 1 .527.848l-12.821 8.554 11.787-6.8a.5.5 0 0 1 .526.849l-11.713 7.744 10.714-6.185a.5.5 0 0 1 .524.851l-8.628 5.622 7.709-4.45a.5.5 0 0 1 .522.853l-6.224 4.037 5.349-3.088a.5.5 0 0 1 .527.849l-6.23 4.118 5.333-3.079a.5.5 0 0 1 .528.848l-4.924 3.3 4.043-2.334a.5.5 0 0 1 .531.846l-3.917 2.667 3.042-1.748a.5.5 0 0 1 .532.844l-2.181 1.495 1.343-.776a.5.5 0 0 1 .556.828l-4.186 3.235 3.2-1.846a.5.5 0 0 1 .586.8l-3.323 3.034 2.239-1.292a.5.5 0 0 1 .575.813l-.642.547a.5.5 0 0 1 .288.932l-4.311 2.486a.5.5 0 0 1 -.25.066z" fill="#edb311"/><path d="m30.835 24.916a.5.5 0 0 1 -.25-.933l3.38-1.951a.5.5 0 0 1 .5.865l-3.38 1.952a.494.494 0 0 1 -.25.067z" fill="#eaf4f4"/><path d="m26.577 33.209a.5.5 0 0 1 -.4-.8l.636-.837-1.516.875a.5.5 0 0 1 -.62-.768l2.01-2.22-1.767 1.021a.5.5 0 0 1 -.588-.8l1.56-1.434-.6.347a.5.5 0 0 1 -.568-.818l4.592-3.8-3.516 2.025a.5.5 0 0 1 -.581-.808l3.718-3.287-3.707 2.14a.5.5 0 0 1 -.563-.823l1.184-.947-2.065 1.195a.5.5 0 0 1 -.5-.866l7.8-4.5a.5.5 0 0 1 .562.823l-1.183.945 2.276-1.313a.5.5 0 0 1 .581.807l-3.722 3.285 4.373-2.523a.5.5 0 0 1 .568.818l-4.953 4.1a.506.506 0 0 1 .383.2.5.5 0 0 1 -.066.664l-1.56 1.435.6-.349a.5.5 0 0 1 .62.769l-2.011 2.218.91-.524a.5.5 0 0 1 .647.735l-.807 1.06a.5.5 0 0 1 .178.928l-1.663.96a.489.489 0 0 1 -.242.067z" fill="#eaf4f4"/><path d="m16.968 15.209a.5.5 0 0 1 -.25-.933l2.393-1.376a.5.5 0 1 1 .5.865l-2.393 1.382a.494.494 0 0 1 -.25.062z" fill="#eaf4f4"/><path d="m19.493 27.749a.5.5 0 0 1 -.4-.8l.707-.935-1.615.931a.5.5 0 0 1 -.53-.846l.7-.472-.6.344a.5.5 0 0 1 -.548-.834l4.377-3.241-3.534 2.04a.5.5 0 0 1 -.566-.821l4.288-3.483-4.4 2.539a.5.5 0 0 1 -.541-.839l.559-.4-1.607.927a.5.5 0 0 1 -.565-.82l2.933-2.385-4.188 2.418a.5.5 0 0 1 -.571-.816l3.786-3.156-4.13 2.384a.5.5 0 0 1 -.655-.726l1.207-1.672-.034.018a.5.5 0 0 1 -.5-.865l2.064-1.191a.5.5 0 0 1 .655.725l-1.207 1.667 7.111-4.1a.5.5 0 0 1 .571.816l-3.781 3.159 4.621-2.669a.5.5 0 0 1 .565.82l-2.935 2.383 4.972-2.87a.5.5 0 0 1 .541.838l-.554.4 1.036-.6a.5.5 0 0 1 .565.821l-4.29 3.485 5.689-3.284a.5.5 0 0 1 .548.834l-4.376 3.241 5.1-2.943a.5.5 0 0 1 .53.846l-8.311 5.627a.5.5 0 0 1 -.091.4l-.866 1.147a.5.5 0 0 1 .184.929l-1.662.96a.489.489 0 0 1 -.252.069z" fill="#eaf4f4"/><g fill="#262626"><path d="m59.708 40.953c-1.383-6.556-.121-17.87-10.346-14.27a1.634 1.634 0 0 0 -1.492-1.711c2.616-2.988-1.33-7.115-4.584-5.245a3.857 3.857 0 0 0 -3.325-.675 3.892 3.892 0 0 0 -4.3.014 4.536 4.536 0 0 0 -3.343-.831 4.489 4.489 0 0 0 -1.26-.042 3.471 3.471 0 0 0 -2.909-1.807 3.628 3.628 0 0 0 -4.014-1.42c-1.842-2.885-6.228-2.686-8.1.08-2.87-.286-5.457 3.433-3.214 5.585a1.816 1.816 0 0 0 -1.621 1.569c-8.565-3.166-9.338 4.881-10.3 11.126-2.019 5.547 1.17 8.065 6.506 8.353-2.513 7 3.476 7.025 8.628 7.858 4.085.188 9.99 3.8 13.171.208.057 10.3 12.49 3.426 18.6 3.531 4.147-.03 5.959-2.947 4.688-6.8 3.362-.11 7.607-1.476 7.215-5.523zm-5.7.316a.722.722 0 0 0 0 .1c-.746.151-1.514.22-2.264.357l-1.633-10.308c.644-.027 1.643-.468 2.191-.231a36.684 36.684 0 0 1 1.703 10.082zm-17.929-21.037a2.254 2.254 0 0 1 3.221-.032c1.093-.008 2.308-.461 3.15.605a.864.864 0 0 0 1.15.033c1.985-1.48 4.285 1.007 3.437 3.05-.56 1.679-3.341 1.068-3.166 3.169.006 2.266 1.121 4.58.83 6.811-.611 1.386-2.138.559-2.386-.575-.4-1.73-.378-3.572-.878-5.272-1.447-3.488-6.567-1.054-5.15 2.33.1 1.336-1.373 2.136-2.226.94-1.609-2.007 1.972-5.822-.95-6.877a3.343 3.343 0 0 0 1.776-4.231.888.888 0 0 0 1.192.049zm-20.247-4.367c1.937.392 3.241-5.327 7.065-.165.169.324.748.2 1.005.083 1.273-.6 2.361.367 3.07 1.312 1.107.192 2.35.481 2.775 1.745.538.515 1.561-.214 2.178.217a.542.542 0 0 0 .471.237c1.893 1.112 1.628 4.8-.912 4.794a2.564 2.564 0 0 0 -2.215.624c-1.252 1.429-.715 10.945-3.917 6.392.207-3.418 2.855-11.091-3.778-7.537-1.14.867-.281 3.2-2.045 3.3-1.706-.357-1.379-2.4-1-3.64.4-3.11-4.44-1.2-4.963-4.092-.416-1.314.446-3.829 2.266-3.27zm-6.552 16.202q-.465 2.382-.931 4.765c-.9-.265-2.861-.015-2.359-1.5.643-2.887 1.01-5.921 1.753-8.74.833.154 1.677.321 2.513.484q-.487 2.495-.976 4.991zm-2.964 8.57c-7.129-.39-3.636-8.123-3.016-12.517.271-5.448 2.728-6.774 7.746-5.093-.192 1-.392 2.006-.587 3.009-5.174-2.2-4.628 3.927-5.5 7.243-1.1 3.407-.273 4.28 3.189 4.593l-.591 3.008zm19.706 9.906c-14.2-4.113-20.768 1.749-15.957-15.268.882-4.626 1.852-9.262 2.693-13.89a12.717 12.717 0 0 1 2.5.48c2.4.006 1.892 1.584 1.5 3.289-.245 2.506 2.882 3.131 4.51 1.808 1.29-.878.757-4.65 3.06-3.009 1.936 2.62-3.314 8.853 2.07 9.167-4.515 19.74-1.175 16.972 1.487-.414 2.539-1.554 1.209-5.867 2.862-7.816.957.136 2.138.21 2.084 1.372-1.569 3.866-2.831 25.347-6.809 24.281zm23.678 1.406c-4.011-.256-17.685 5.2-18.575.277-1.881-6.688.974-13.3 1.939-19.939a2.8 2.8 0 0 0 4.616-2.665c-.114-.752-.232-1.809.683-2.128 4 .268.238 9.468 5.843 8.145 2.493 20.047 4.908 16.513 1.374-.863 2.446-1.814-3.065-10.818 2.245-8.26-.206 4.827 6.175 23.995 1.875 25.433zm8.174-8.721c-.976 1.922-3.547 2.007-5.543 2.248q-.252-1.6-.505-3.192c5.838.247 2.947-4.854 2.717-8.453-.085-3.552-1.366-3.755-4.521-2.967q-.251-1.587-.5-3.176c3.881-1.189 7.209-.281 7.268 4.286.21 3.687 2.084 7.647 1.085 11.254z"/><path d="m14.831 29.684c.2 1.8-4.91 17.787-1.42 14.577-.194-1.802 4.911-17.788 1.42-14.577z"/><path d="m20.733 30.885c.2 1.874-4.831 17.341-1.447 14.477-.198-1.874 4.832-17.341 1.447-14.477z"/><path d="m39.5 34.755c-3.366-1.294 1.184 12.839.889 15.2 3.371 1.299-1.179-12.834-.889-15.2z"/><path d="m34.7 42.811c-3.035-1.995-.058 6.647-.234 8.084 3.034 1.996.06-6.646.234-8.084z"/><path d="m30.091 4.568c-1.783.659-.41 3.9-.818 5.514.072.647 1.359.343 1.454-.164-.388-1.506.859-4.765-.636-5.35z"/><path d="m23.724 5.806c-.266-.551-1.532-.213-1.449.388.985 1.19 1.175 4.144 2.839 4.233 1.545-.835-1.147-3.274-1.39-4.621z"/><path d="m36.309 5.923c-.252 1.327-2.78 3.689-1.563 4.593 1.199.376 4.617-7.068 1.563-4.593z"/></g></svg>